#!OML:ASF E:\Steps\Project 1\Capture day 1\Session 2\Subject.ASF
:FULLY-SPECIFIED
:DEGREES
327
root 12.0111 17.2295 10.0385 -149.633 5.163 178.287
lowerback -21.2464 -2.25868 -6.10212
upperback 1.55281 -1.41617 0.583203
thorax 13.9674 -1.10342 3.69916
lowerneck -0.604225 -2.13889 -1.09206
upperneck 19.7776 -2.03301 3.40559
head 6.12495 -0.295328 1.21152
rclavicle -2.38542e-015 5.76476e-015
rhumerus -43.6646 -9.7421 -73.9055
rradius 48.1077
rwrist -6.59154
rhand -6.58472 -49.5146
rfingers 7.12502
rthumb 19.2702 281.42
lclavicle -2.38542e-015 5.76476e-015
lhumerus -34.6221 -2.21008 80.3216
lradius 36.5759
lwrist 3.53168
lhand -21.5411 -12.5068
lfingers 7.12502
lthumb 4.85192 17.4176
rfemur -44.2495 6.32197 12.1584
rtibia 60.9036
rfoot -20.953 -9.39311
rtoes -32.003
lfemur -39.097 -5.88908 -22.6899
ltibia 14.6428
lfoot -5.13803 -1.83224
ltoes -30.9605
328
root 11.9994 17.2347 10.0165 -149.748 5.13647 178.16
lowerback -21.2683 -2.45176 -6.18266
upperback 1.51178 -1.64957 0.592864
thorax 13.9628 -1.21363 3.67858
lowerneck -0.955019 -1.92243 -0.758357
upperneck 20.1792 -1.67035 2.97582
head 6.29847 -0.111439 1.04059
rclavicle -2.18663e-015 2.26615e-014
rhumerus -43.8135 -9.7708 -73.863
rradius 47.6496
rwrist -6.35416
rhand -6.41602 -49.7324
rfingers 7.12502
rthumb 19.4324 281.219
lclavicle -2.18663e-015 2.26615e-014
lhumerus -34.7683 -1.95408 80.3402
lradius 36.5215
lwrist 3.47208
lhand -21.7403 -12.4861
lfingers 7.12502
lthumb 4.65958 17.4427
rfemur -44.528 6.53766 12.2528
rtibia 59.1031
rfoot -21.0652 -9.53407
rtoes -33.0373
lfemur -38.7536 -5.91537 -22.9482
ltibia 14.4159
lfoot -5.21768 -1.91556
ltoes -31.1672
329
root 11.9873 17.2372 9.97973 -149.975 5.19035 178.239
lowerback -21.3792 -2.47845 -6.03525
upperback 1.60016 -1.71668 0.585681
thorax 14.1337 -1.24084 3.5605
lowerneck -1.42021 -1.8464 -0.260282
upperneck 20.6113 -1.49015 2.37927
head 6.50571 -0.0185722 0.778184
rclavicle 2.31584e-014 2.78299e-015
rhumerus -43.847 -10.0697 -73.7787
rradius 47.1455
rwrist -6.13076
rhand -6.01422 -50.1761
rfingers 7.12502
rthumb 19.8187 280.814
lclavicle 2.31584e-014 2.78299e-015
lhumerus -34.859 -1.9339 80.396
lradius 36.5699
lwrist 3.40243
lhand -21.7925 -12.394
lfingers 7.12502
lthumb 4.60911 17.5358
rfemur -44.6505 6.96751 12.5041
rtibia 57.3627
rfoot -21.6267 -9.34736
rtoes -34.1754
lfemur -38.0675 -6.01936 -22.9101
ltibia 13.8979
lfoot -5.18982 -1.7651
ltoes -30.4498
330
root 11.9563 17.2379 9.88624 -151.089 5.92395 178.727
lowerback -20.7829 -2.06735 -5.52308
upperback 1.77919 -1.36015 0.605129
thorax 13.9375 -1.04839 3.41194
lowerneck -1.46993 -1.56093 0.560594
upperneck 20.6289 -0.975598 1.35925
head 6.50285 0.21501 0.343977
rclavicle 1.05356e-014 1.14301e-014
rhumerus -44.382 -10.0681 -73.4318
rradius 46.8226
rwrist -6.15001
rhand -5.90581 -50.562
rfingers 7.12502
rthumb 19.9229 280.439
lclavicle 1.05356e-014 1.14301e-014
lhumerus -35.4182 -2.01776 80.6794
lradius 36.7462
lwrist 3.29296
lhand -21.7035 -12.2856
lfingers 7.12502
lthumb 4.69503 17.6424
rfemur -43.4674 8.10921 12.8945
rtibia 55.214
rfoot -22.4143 -8.91781
rtoes -34.4755
lfemur -35.629 -6.56921 -22.3362
ltibia 12.3369
lfoot -5.23177 -0.169742
ltoes -30.116
331
root 11.9655 17.2403 9.92844 -150.031 5.15139 178.272
lowerback -21.0963 -2.55823 -6.04598
upperback 1.3811 -1.84773 0.665224
thorax 13.7292 -1.2864 3.62102
lowerneck -2.71678 -1.64325 0.719599
upperneck 21.7144 -1.0931 1.3907
head 7.07235 0.203405 0.323757
rclavicle -1.64991e-014 -5.1684e-015
rhumerus -44.3505 -10.3678 -73.4342
rradius 46.4628
rwrist -6.2775
rhand -6.38884 -50.1634
rfingers 7.12502
rthumb 19.4585 280.79
lclavicle -1.64991e-014 -5.1684e-015
lhumerus -35.2496 -2.3147 80.743
lradius 36.8138
lwrist 3.29409
lhand -21.6468 -12.0496
lfingers 7.12502
lthumb 4.74984 17.8772
rfemur -45.3252 7.61821 12.7917
rtibia 53.8662
rfoot -22.777 -9.21907
rtoes -33.5676
lfemur -37.4211 -6.25381 -22.8809
ltibia 13.124
lfoot -5.06135 -1.54992
ltoes -29.3034
332
root 11.9599 17.2437 9.91349 -149.97 5.00044 178.237
lowerback -21.1754 -2.63682 -6.06186
upperback 1.39395 -1.94332 0.675286
thorax 13.8026 -1.33362 3.60834
lowerneck -0.911927 -2.02622 -1.0306
upperneck 20.3116 -1.78438 2.96551
head 6.33839 -0.182291 1.07812
rclavicle 8.15017e-015 1.90833e-014
rhumerus -44.3514 -10.7128 -73.3483
rradius 46.038
rwrist -6.42268
rhand -6.87947 -49.6205
rfingers 7.12502
rthumb 18.9867 281.286
lclavicle 8.15017e-015 1.90833e-014
lhumerus -35.0118 -2.59637 80.8737
lradius 36.6659
lwrist 3.27314
lhand -21.5739 -11.9023
lfingers 7.12502
lthumb 4.82022 18.0228
rfemur -45.7107 7.88119 12.8922
rtibia 52.0391
rfoot -22.937 -9.06215
rtoes -33.224
lfemur -37.3444 -6.24292 -22.9449
ltibia 12.9646
lfoot -5.03543 -1.73888
ltoes -28.9785
333
root 11.9557 17.2479 9.89799 -150.055 4.89655 178.214
lowerback -21.0512 -2.66262 -6.08138
upperback 1.40255 -1.9819 0.669223
thorax 13.7457 -1.35194 3.60156
lowerneck -0.913493 -1.97425 -0.928667
upperneck 20.0738 -1.75085 2.98705
head 6.26108 -0.170247 1.06704
rclavicle -1.96797e-014 -1.98785e-016
rhumerus -44.4394 -11.039 -73.2069
rradius 45.6331
rwrist -6.34863
rhand -6.42434 -49.6531
rfingers 7.12502
rthumb 19.4244 281.297
lclavicle -1.96797e-014 -1.98785e-016
lhumerus -34.9147 -2.71999 80.9787
lradius 36.626
lwrist 3.2685
lhand -21.4191 -12.1684
lfingers 7.12502
lthumb 4.96967 17.7534
rfemur -45.9347 8.20561 13.0296
rtibia 50.3133
rfoot -23.1981 -8.894
rtoes -34.3396
lfemur -37.0734 -6.15328 -23.0283
ltibia 12.7607
lfoot -4.91736 -1.95513
ltoes -28.8162
334
root 11.9511 17.2534 9.87823 -150.315 4.84802 178.132
lowerback -20.798 -2.72353 -6.21395
upperback 1.43524 -2.05193 0.67789
thorax 13.6516 -1.3948 3.66771
lowerneck -0.616153 -1.93631 -1.15314
upperneck 19.7776 -1.72623 3.17685
head 6.11846 -0.171885 1.1652
rclavicle 2.08724e-015 2.78299e-015
rhumerus -44.5875 -11.3068 -73.0432
rradius 45.3304
rwrist -6.23691
rhand -5.9107 -49.6449
rfingers 7.12502
rthumb 19.9182 281.356
lclavicle 2.08724e-015 2.78299e-015
lhumerus -34.9949 -2.70146 81.0564
lradius 36.7983
lwrist 3.39644
lhand -21.1366 -12.1778
lfingers 7.12502
lthumb 5.24241 17.7374
rfemur -45.8573 8.48126 13.1096
rtibia 48.46
rfoot -23.1252 -8.78761
rtoes -34.8772
lfemur -36.5864 -6.09643 -23.1986
ltibia 12.5193
lfoot -4.80531 -2.09311
ltoes -29.0074
335
root 11.9456 17.2551 9.85351 -150.514 4.77552 178.053
lowerback -20.7262 -2.82247 -6.31318
upperback 1.46732 -2.16929 0.705898
thorax 13.6678 -1.45964 3.7183
lowerneck -0.980121 -1.90203 -0.916238
upperneck 20.0873 -1.62935 2.80834
head 6.27296 -0.125782 1.01437
rclavicle 2.78299e-015 -1.49089e-014
rhumerus -44.6976 -11.6458 -72.8902
rradius 45.0331
rwrist -6.23305
rhand -6.18872 -50.1207
rfingers 7.12502
rthumb 19.6509 280.853
lclavicle 2.78299e-015 -1.49089e-014
lhumerus -34.9568 -2.59925 81.0866
lradius 36.7358
lwrist 3.42587
lhand -20.9424 -12.0298
lfingers 7.12502
lthumb 5.42997 17.8807
rfemur -45.7949 8.75702 13.1471
rtibia 46.6764
rfoot -23.0637 -8.743
rtoes -35.4641
lfemur -36.1481 -6.07541 -23.3799
ltibia 12.2863
lfoot -4.78297 -2.25249
ltoes -28.8434
336
root 11.9385 17.2512 9.82542 -150.579 4.67873 177.974
lowerback -20.912 -2.87817 -6.28963
upperback 1.54899 -2.23041 0.668544
thorax 13.8768 -1.49164 3.63678
lowerneck -1.29596 -1.98022 -0.810614
upperneck 20.2095 -1.73989 2.68871
head 6.36695 -0.181614 0.951131
rclavicle -2.41523e-014 -2.78299e-015
rhumerus -44.593 -12.0426 -72.8495
rradius 44.6557
rwrist -6.24874
rhand -6.59262 -52.127
rfingers 7.12502
rthumb 19.2626 278.807
lclavicle -2.41523e-014 -2.78299e-015
lhumerus -34.6657 -2.59255 81.085
lradius 36.4838
lwrist 3.34363
lhand -20.9062 -12.0099
lfingers 7.12502
lthumb 5.46495 17.8996
rfemur -45.7346 9.04356 13.1151
rtibia 44.778
rfoot -23.456 -8.62855
rtoes -37.0929
lfemur -35.7883 -6.01165 -23.6034
ltibia 11.9984
lfoot -4.76268 -2.51247
ltoes -28.2433
